<svg width="55" height="39" viewBox="0 0 55 39" fill="none" xmlns="http://www.w3.org/2000/svg">
<circle cx="35.193" cy="19.0543" r="19.0543" fill="#BCDBFF"/>
<g filter="url(#filter0_d_108_1136)">
<path d="M46.9392 16.3775L42.44 14.4831C41.7296 11.4994 39.48 9.47768 36.5792 8.96897C33.6784 8.46026 28.1136 10.1615 28.1136 10.1615C28.1136 10.1615 25.6493 10.5389 24.088 10.8719C19.5975 11.8295 12.8992 14.4831 12.8992 14.4831L6.328 12.4111L1 13.6543C1 13.6543 8.37041 16.6681 10.472 17.7391C12.5736 18.81 12.8992 18.9876 12.8992 18.9876C12.8992 18.9876 12.4848 21.7055 13.9056 24.5471C15.3264 27.3887 18.464 29.7228 19.648 30.2303C20.832 30.7377 27.9952 34.0191 35.4544 30.2303C39.9409 27.9514 40.8416 24.2511 40.8416 20.6991L42.7952 16.9103L46.9392 16.3775Z" fill="#1F476A" stroke="#1F476A" stroke-width="1.14232" stroke-linejoin="round"/>
<circle cx="37.4969" cy="14.661" r="2.5604" fill="white"/>
<path d="M41.0782 21.5137C41.4334 24.6802 40.0657 27.4823 38.8776 28.437C35.8095 30.9025 33.5006 31.3107 33.5006 31.3107C33.5006 31.3107 30.8218 29.7231 30.8218 26.8023C30.8218 23.8815 33.813 21.5137 37.503 21.5137C42.6766 21.5137 41.0782 21.5136 41.0782 21.5137Z" fill="#DECF1D"/>
<path d="M39.1572 15.2292C39.1568 15.3886 39.1247 15.5463 39.0625 15.6934C39.0004 15.8405 38.9095 15.9741 38.795 16.0865C38.6806 16.1989 38.5448 16.288 38.3954 16.3486C38.2461 16.4093 38.0861 16.4403 37.9246 16.4399C37.7631 16.4395 37.6033 16.4077 37.4543 16.3464C37.3052 16.285 37.1699 16.1953 37.0559 16.0824C36.942 15.9694 36.8518 15.8354 36.7903 15.688C36.7289 15.5406 36.6974 15.3827 36.6978 15.2234L37.9275 15.2263L39.1572 15.2292Z" fill="black"/>
</g>
<defs>
<filter id="filter0_d_108_1136" x="0.428711" y="8.30273" width="48.1256" height="25.3449" filterUnits="userSpaceOnUse" color-interpolation-filters="sRGB">
<feFlood flood-opacity="0" result="BackgroundImageFix"/>
<feColorMatrix in="SourceAlpha" type="matrix" values="0 0 0 0 0 0 0 0 0 0 0 0 0 0 0 0 0 0 127 0" result="hardAlpha"/>
<feOffset dx="1.04407" dy="1.04407"/>
<feComposite in2="hardAlpha" operator="out"/>
<feColorMatrix type="matrix" values="0 0 0 0 0 0 0 0 0 0 0 0 0 0 0 0 0 0 0.4 0"/>
<feBlend mode="normal" in2="BackgroundImageFix" result="effect1_dropShadow_108_1136"/>
<feBlend mode="normal" in="SourceGraphic" in2="effect1_dropShadow_108_1136" result="shape"/>
</filter>
</defs>
</svg>
